Coordinates
version=1
nRows=7
nColumns=40
inDegrees=yes

Units are S.I. units (second, meters, Newtons, ...)
If the header above contains a line with 'inDegrees', this indicates whether rotational values are in degrees (yes) or radians (no).

endheader
time	pelvis_tilt	pelvis_list	pelvis_rotation	pelvis_tx	pelvis_ty	pelvis_tz	hip_flexion_r	hip_adduction_r	hip_rotation_r	knee_angle_r	knee_angle_r_beta	ankle_angle_r	subtalar_angle_r	mtp_angle_r	hip_flexion_l	hip_adduction_l	hip_rotation_l	knee_angle_l	knee_angle_l_beta	ankle_angle_l	subtalar_angle_l	mtp_angle_l	lumbar_extension	lumbar_bending	lumbar_rotation	arm_flex_r	arm_add_r	arm_rot_r	elbow_flex_r	pro_sup_r	wrist_flex_r	wrist_dev_r	arm_flex_l	arm_add_l	arm_rot_l	elbow_flex_l	pro_sup_l	wrist_flex_l	wrist_dev_l
      1.30000000	      0.76832885	     -1.49078322	      2.95539515	     -0.26636488	      1.05357918	     -1.17285846	      0.49214240	     -4.33167573	     -0.94214365	     75.54820699	      1.31856496	     -3.90393918	      0.00000000	      0.00000000	      8.93278610	      2.49562054	     -1.75130358	     21.83961042	      0.38117311	     -2.55043008	      0.00000000	      0.00000000	    -18.55832204	     -4.70884928	     -1.51539365	     74.45371236	      0.50626324	     24.36862749	     37.08969681	     86.53019104	      0.00000000	      0.00000000	     87.21534851	     -7.65605112	     56.99563117	     34.81909332	     86.74533504	      0.00000000	      0.00000000
      1.30500000	      0.70956844	     -1.50591546	      2.94783857	     -0.26683716	      1.05329363	     -1.17275621	      0.49856286	     -4.28565840	     -0.88013836	     75.44056236	      1.31668620	     -3.96190863	      0.00000000	      0.00000000	      9.11414031	      2.45655742	     -1.84685104	     22.02023336	      0.38432557	     -2.49234744	      0.00000000	      0.00000000	    -18.60507291	     -4.69644623	     -1.47525135	     74.64011511	      0.45203955	     24.51704491	     37.02399727	     86.45719969	      0.00000000	      0.00000000	     87.37020933	     -7.62628252	     56.99216997	     34.80047729	     86.84917810	      0.00000000	      0.00000000
      1.31000000	      0.56212282	     -1.48902711	      2.89686744	     -0.26743993	      1.05279670	     -1.17258858	      0.65327061	     -4.28716285	     -0.78640523	     75.42649192	      1.31644063	     -3.81265119	      0.00000000	      0.00000000	      9.43114633	      2.44155688	     -2.03913531	     22.26567185	      0.38860928	     -2.43679238	      0.00000000	      0.00000000	    -18.56613267	     -4.74081873	     -1.46194186	     74.85790180	      0.45355643	     24.70465955	     36.94783645	     86.35602941	      0.00000000	      0.00000000	     87.54654660	     -7.67325432	     57.09967890	     34.82533522	     86.86539085	      0.00000000	      0.00000000
      1.31500000	      0.49184070	     -1.54163925	      2.90807984	     -0.26787512	      1.05247914	     -1.17245914	      0.67286941	     -4.20520061	     -0.76202806	     75.31563036	      1.31450573	     -3.84871617	      0.00000000	      0.00000000	      9.65374511	      2.37161759	     -1.98542864	     22.51281408	      0.39292273	     -2.40170873	      0.00000000	      0.00000000	    -18.60006831	     -4.68582063	     -1.47229690	     74.99600689	      0.51580340	     24.66287322	     36.90582710	     86.37954306	      0.00000000	      0.00000000	     87.68056063	     -7.68558115	     57.02784173	     34.79383119	     86.88988846	      0.00000000	      0.00000000
      1.32000000	      0.43286065	     -1.62247014	      2.91474603	     -0.26836550	      1.05213998	     -1.17231704	      0.68238793	     -4.10725549	     -0.76373303	     75.21152175	      1.31268869	     -3.78661353	      0.00000000	      0.00000000	      9.89201723	      2.25528332	     -2.07574819	     22.80015670	      0.39793780	     -2.30168016	      0.00000000	      0.00000000	    -18.65174953	     -4.60136382	     -1.42852580	     75.23693488	      0.49087578	     24.80116768	     36.76193277	     86.44452723	      0.00000000	      0.00000000	     87.82291312	     -7.66970907	     57.00073166	     34.81938115	     86.89596471	      0.00000000	      0.00000000
      1.32500000	      0.26528022	     -1.57554060	      2.85290019	     -0.26897506	      1.05156467	     -1.17211736	      0.82282926	     -4.16014919	     -0.64112309	     75.18751416	      1.31226968	     -3.77058412	      0.00000000	      0.00000000	     10.24503264	      2.27567951	     -2.16801479	     23.08237965	      0.40286352	     -2.22705783	      0.00000000	      0.00000000	    -18.59922108	     -4.68206627	     -1.38493701	     75.39612338	      0.47806562	     24.78090298	     36.83600388	     86.55022700	      0.00000000	      0.00000000	     87.98337095	     -7.65954686	     57.04999565	     34.78402307	     86.79323353	      0.00000000	      0.00000000
      1.33000000	      0.13164883	     -1.53885636	      2.80273112	     -0.26950987	      1.05107591	     -1.17195596	      0.95320902	     -4.21573685	     -0.59012410	     75.15263943	      1.31166100	     -3.81358171	      0.00000000	      0.00000000	     10.53088846	      2.28874838	     -2.27098287	     23.30031495	      0.40666721	     -2.22614759	      0.00000000	      0.00000000	    -18.57757573	     -4.73822139	     -1.34739843	     75.59311630	      0.50344493	     24.77271137	     36.75527987	     86.55875642	      0.00000000	      0.00000000	     88.14118580	     -7.64877715	     57.05955784	     34.74688226	     86.80443647	      0.00000000	      0.00000000
